HIERARCHY
ROOT hip
{
	OFFSET 0.000000 0.000000 0.000000 
	CHANNELS 6 Xposition Yposition Zposition Xrotation Zrotation Yrotation
	JOINT abdomen
	{
		OFFSET 0.000000 3.402643 0.000000 
		CHANNELS 3 Xrotation Zrotation Yrotation
		JOINT chest
		{
			OFFSET 0.000000 8.438565 -0.680529 
			CHANNELS 3 Xrotation Zrotation Yrotation
			JOINT neck
			{
				OFFSET 0.000000 10.207942 -0.272212 
				CHANNELS 3 Xrotation Zrotation Yrotation
				JOINT head
				{
					OFFSET 0.000000 3.130431 0.000000 
					CHANNELS 3 Xrotation Zrotation Yrotation
					End Site
					{
						OFFSET 0.000000 3.130435 0.000000 
					}
				}
			}
			JOINT lCollar
			{
				OFFSET 3.470700 6.669187 -0.816635 
				CHANNELS 3 Yrotation Zrotation Xrotation
				JOINT lShldr
				{
					OFFSET 3.198488 0.000000 0.000000 
					CHANNELS 3 Zrotation Yrotation Xrotation
					JOINT lForeArm
					{
						OFFSET 10.139888 0.000000 0.000000 
						CHANNELS 3 Yrotation Zrotation Xrotation
						JOINT lHand
						{
							OFFSET 8.370511 0.000000 0.000000 
							CHANNELS 3 Zrotation Yrotation Xrotation
							End Site
							{
								OFFSET 4.083176 0.000000 0.000000 
							}
						}
					}
				}
			}
			JOINT rCollar
			{
				OFFSET -3.470700 6.669187 -0.816635 
				CHANNELS 3 Yrotation Zrotation Xrotation
				JOINT rShldr
				{
					OFFSET -3.198488 0.000000 0.000000 
					CHANNELS 3 Zrotation Yrotation Xrotation
					JOINT rForeArm
					{
						OFFSET -10.139888 0.000000 0.000000 
						CHANNELS 3 Yrotation Zrotation Xrotation
						JOINT rHand
						{
							OFFSET -8.370511 0.000000 0.000000 
							CHANNELS 3 Zrotation Yrotation Xrotation
							End Site
							{
								OFFSET -4.083176 0.000000 0.000000 
							}
						}
					}
				}
			}
		}
	}
	JOINT lThigh
	{
		OFFSET 5.308129 -1.633274 1.361059 
		CHANNELS 3 Xrotation Zrotation Yrotation
		JOINT lShin
		{
			OFFSET -2.041588 -20.007561 0.000000 
			CHANNELS 3 Xrotation Zrotation Yrotation
			JOINT lFoot
			{
				OFFSET 0.000000 -19.190928 -1.224953 
				CHANNELS 3 Xrotation Yrotation Zrotation
				End Site
				{
					OFFSET 0.000000 -2.449906 4.627600 
				}
			}
		}
	}
	JOINT rThigh
	{
		OFFSET -5.308129 -1.633274 1.361059 
		CHANNELS 3 Xrotation Zrotation Yrotation
		JOINT rShin
		{
			OFFSET 2.041588 -20.007561 0.000000 
			CHANNELS 3 Xrotation Zrotation Yrotation
			JOINT rFoot
			{
				OFFSET 0.000000 -19.190928 -1.224953 
				CHANNELS 3 Xrotation Yrotation Zrotation
				End Site
				{
					OFFSET 0.000000 -2.449906 4.627600 
				}
			}
		}
	}
}
MOTION
Frames: 8
Frame Time: 0.033333
3.113590 41.199085 -1.044413 1.614260 1.650030 4.402071 0.526676 -5.747361 14.892956 3.007265 -0.693428 8.506740 6.398133 2.960377 15.305947 1.879588 4.033411 -45.218384 -3.476549 3.578584 -1.183729 -70.872986 -1.399308 11.897533 -50.087360 17.185656 -57.283813 -5.120684 -15.996948 62.722275 15.576554 -16.166155 13.731409 103.254028 43.472992 14.277959 102.939186 21.480516 -91.956894 -16.217035 22.075874 96.532272 -50.739220 -1.864027 -11.715619 67.736435 -6.634697 -8.570012 -19.594143 -12.922738 -0.790702 -15.473528 -12.433992 32.531845 66.422096 33.860756 25.945211 -90.630478 -57.506298 -44.809769 
3.070718 41.451546 -1.237935 1.614260 1.650030 3.022394 0.268528 -5.618600 14.180200 2.811940 -0.923414 8.072180 6.130500 2.870910 15.328200 1.678110 3.903070 -42.251499 -3.482790 3.253270 -1.189370 -71.589378 -2.344516 8.803690 -47.100662 18.818060 -66.017128 -6.293494 -18.669279 73.760429 14.837958 -14.947867 13.543832 116.766571 51.380875 27.339643 98.889465 23.354933 -89.126526 -18.681856 20.569016 102.612579 -50.205376 -1.458363 -11.987301 66.525711 -6.658769 -8.388937 -19.128189 -11.654995 -1.217023 -15.933952 -12.906093 32.508442 65.636070 33.714531 25.497808 -87.333336 -57.175884 -42.486076 
3.012820 41.744507 -1.537484 1.614260 1.650030 2.359569 0.167916 -5.711980 13.791880 2.873239 -1.163828 7.906850 6.004246 2.828706 15.338279 1.583063 3.841583 -40.842377 -3.400960 2.964447 -1.192838 -72.144188 -2.992410 6.041562 -46.521229 21.297682 -74.757256 -8.278873 -21.378149 85.751907 15.091759 -12.826127 13.578081 127.660278 58.622631 35.638180 93.165970 28.008699 -88.568489 -24.258553 19.325783 108.021118 -49.730289 -1.149732 -12.170864 64.991234 -6.683264 -8.163051 -18.258568 -11.100800 -1.602517 -16.367029 -13.022101 32.513611 64.741318 33.556137 24.971182 -85.323692 -57.370426 -41.513412 
2.885104 42.246456 -1.963493 1.614260 1.650030 2.347751 0.159466 -5.956141 13.731707 3.102485 -1.377178 8.015590 6.007433 2.829772 15.338568 1.585462 3.843137 -40.867542 -3.254133 2.711558 -1.194580 -72.484261 -3.226542 3.715565 -48.636238 24.215014 -82.756340 -10.730943 -23.964024 97.905823 16.008537 -9.501518 13.713312 134.449188 63.873604 38.235237 88.601242 35.758583 -90.016289 -29.897774 21.716442 110.867676 -48.947102 -0.823742 -12.247844 62.514027 -6.706782 -7.793756 -16.720875 -11.269632 -2.006597 -16.726952 -12.674633 32.563309 63.403538 33.376389 24.202814 -84.476891 -58.100727 -42.025490 
2.777547 42.950989 -2.320892 1.614260 1.650030 2.540610 0.160204 -6.116680 13.803500 3.250760 -1.473800 8.134040 6.048770 2.843590 15.335000 1.616580 3.863270 -41.323502 -3.073814 2.491657 -1.195173 -72.567017 -2.889399 1.913749 -53.644283 27.041428 -89.114983 -13.148064 -26.244204 109.222488 16.737041 -7.583430 13.821673 139.013397 65.509216 41.105518 85.280426 39.926598 -93.451202 -32.896301 22.691647 109.533737 -47.638294 -0.501483 -12.294589 59.274944 -6.728824 -7.304220 -14.899265 -11.660405 -2.348834 -16.522049 -12.279004 32.487495 60.982983 32.985321 22.847624 -83.325745 -59.138412 -42.563263 
2.792833 43.772533 -2.409729 1.614260 1.650030 2.453146 0.105450 -5.987493 13.807850 3.105034 -1.384869 8.006792 6.039788 2.840586 15.333084 1.609817 3.858896 -41.230824 -2.891512 2.301803 -1.195197 -72.349915 -1.823470 0.724176 -61.743919 29.248274 -92.933739 -15.028583 -28.035975 118.702133 16.501379 -9.563744 13.799558 143.213440 62.484463 49.864574 82.628365 34.234482 -98.525383 -31.424213 16.823126 103.047325 -45.766598 -0.235152 -12.396526 55.775444 -6.748754 -6.768016 -13.329299 -11.711291 -2.537944 -15.366185 -12.290324 32.150494 57.126526 32.241375 20.710743 -80.497040 -60.188000 -41.618752 
2.922975 44.503948 -2.250962 1.614260 1.650030 1.870167 0.021968 -5.605924 13.644185 2.709349 -1.166575 7.621546 5.949019 2.810239 15.336506 1.541484 3.814689 -40.239914 -2.738733 2.139048 -1.195230 -71.790375 0.128763 0.234895 -73.133766 30.306934 -93.313202 -15.870862 -29.156637 125.345100 15.348982 -14.555417 13.647344 145.465988 56.372551 61.778484 80.175919 20.997776 -103.326851 -26.798563 5.586521 92.750793 -43.833012 -0.061975 -12.551004 52.898228 -6.762657 -6.321822 -12.398673 -11.172306 -2.569417 -13.797208 -12.749104 31.716534 53.007694 31.394527 18.436596 -76.504974 -60.834919 -39.254078 
3.132322 44.907681 -1.920774 1.614260 1.650030 0.643937 -0.040617 -5.070181 13.236645 2.172017 -0.906362 7.026780 5.759247 2.746796 15.348496 1.398621 3.722268 -38.158653 -2.646983 2.000449 -1.195848 -70.845818 3.124802 0.533961 -88.012321 29.688759 -89.353966 -15.173251 -29.423479 128.151642 13.533115 -20.826649 13.391406 143.326752 49.401279 72.025856 77.480507 4.680568 -105.552528 -21.123125 -7.816621 80.565018 -42.473103 -0.015433 -12.733352 51.621334 -6.765799 -6.118093 -12.458136 -9.871428 -2.460439 -12.583974 -13.592204 31.424835 50.181721 30.792646 16.879450 -72.335648 -60.634830 -35.923927 
